<?xml version="1.0" encoding="UTF-8"?><svg id="Layer_1" xmlns="http://www.w3.org/2000/svg" viewBox="0 0 278.36 70.75"><defs><style>.cls-1{fill:#fff;}.cls-2{fill:#88cfe3;}</style></defs><g><path class="cls-1" d="M107.21,62.98c-.02,.61-.06,1.24-.14,1.91l2.49-4.51-.27-1.47,2.5-.38,.91,6.25,1.15-3.92c.09-.38,.14-.67,.15-.96,0-.29-.02-.59-.12-1.01l2.62-.5c.1,.54,.16,.99,.14,1.47-.02,.63-.18,1.32-.62,2.35l-2.11,5.66h-3.12l-.66-4.23-2.44,4.23h-3.02c.12-3.94-.02-6.41-.3-8.99l2.6-.4c.2,1.43,.3,2.87,.24,4.49Z"/><path class="cls-1" d="M123.44,60.82c-1.21,.65-1.66,.9-2.75,1.57l-1.17,5.49h-2.7l1.9-9.08,2.38-.4-.1,1.26c.92-.54,1.66-.92,2.47-1.26l-.05,2.43Z"/><path class="cls-1" d="M125.04,58.78l2.79-.38-2.01,9.48h-2.7l1.92-9.1Zm.87-4.11l2.79-.38-.62,2.87-2.77,.38,.6-2.87Z"/><path class="cls-1" d="M132.79,60.73l-.98,4.65c-.02,.1-.04,.19-.05,.25,0,.13,.07,.19,.26,.19,.46,0,.98-.19,1.47-.38l.47,1.87c-.78,.42-1.9,.77-2.99,.77-1.36,0-2.06-.65-2.02-1.76,0-.13,.03-.27,.05-.4l1.1-5.18h-1.38l.46-2.16h1.38l.46-2.24,2.79-.38-.55,2.62h2.22l-.61,2.16h-2.06Z"/><path class="cls-1" d="M136,61.89c.46-2.14,1.46-3.52,4.41-3.52,1.76,0,3.07,.76,3.02,2.33-.06,1.82-1.03,2.66-3.35,3.35-1.14,.34-1.16,.34-1.97,.55l-.14,.65c-.07,.34-.04,.65,.45,.65,.98,0,2.41-.48,3.69-1.03l.45,1.91c-1.15,.71-2.95,1.28-4.59,1.28-1.93,0-2.72-.84-2.67-2.43,.01-.34,.06-.73,.15-1.13l.55-2.62Zm4.91-.9c.01-.33-.27-.54-.76-.54-.98,0-1.28,.55-1.44,1.32l-.14,.65c.46-.12,.67-.15,1.23-.33,.73-.21,1.09-.55,1.11-1.11Z"/><path class="cls-1" d="M150.38,54.76l2.79-.38-2.84,13.5h-2.7l2.75-13.12Z"/><path class="cls-1" d="M153.52,61.89c.46-2.14,1.46-3.52,4.41-3.52,1.76,0,3.07,.76,3.02,2.33-.06,1.82-1.03,2.66-3.35,3.35-1.14,.34-1.16,.34-1.97,.55l-.14,.65c-.07,.34-.04,.65,.46,.65,.98,0,2.41-.48,3.69-1.03l.45,1.91c-1.15,.71-2.95,1.28-4.59,1.28-1.93,0-2.72-.84-2.67-2.43,.01-.34,.06-.73,.15-1.13l.55-2.62Zm4.91-.9c.01-.33-.27-.54-.76-.54-.98,0-1.28,.55-1.44,1.32l-.14,.65c.46-.12,.67-.15,1.23-.33,.73-.21,1.09-.55,1.11-1.11Z"/><path class="cls-1" d="M161.16,67.46l.59-1.99c.7,.25,1.49,.48,2.51,.48,.9,0,.96-.27,1.06-.71,.09-.42-.17-.65-1.2-1.2-1.91-1.03-1.97-1.72-1.67-3.12,.43-2.01,1.04-2.54,3.63-2.54,.88,0,2,.19,2.76,.44l-.51,2.03c-.68-.19-1.69-.34-2.34-.34-.8,0-.92,.1-1.04,.59-.09,.44,0,.54,.88,1.01,2.1,1.15,2.41,1.55,2.09,3.02-.46,2.1-1.1,2.95-3.89,2.95-.86,0-2.06-.25-2.87-.61Z"/><path class="cls-1" d="M168.88,67.46l.59-1.99c.7,.25,1.49,.48,2.51,.48,.9,0,.96-.27,1.06-.71,.09-.42-.17-.65-1.2-1.2-1.91-1.03-1.97-1.72-1.67-3.12,.43-2.01,1.04-2.54,3.63-2.54,.88,0,2,.19,2.76,.44l-.51,2.03c-.68-.19-1.69-.34-2.34-.34-.8,0-.92,.1-1.04,.59-.09,.44,0,.54,.88,1.01,2.1,1.15,2.41,1.55,2.09,3.02-.46,2.1-1.1,2.95-3.89,2.95-.86,0-2.06-.25-2.87-.61Z"/><path class="cls-1" d="M176.27,69.96l1.55-2.08h-1.01l.66-3.17h2.7l-.73,3.4-2.22,2.64-.95-.78Z"/><path class="cls-1" d="M191.01,67.88l-.05-.8c-.69,.55-1.66,.99-3,.99-2.03,0-2.48-1.22-2.04-3.31l.53-2.5c.46-2.22,1.09-3.88,5.01-3.88,.29,0,.88,.04,1.12,.1l.78-3.71,2.77-.38-2.84,13.5h-2.28Zm-2.46-2.79c-.11,.5,.01,.73,.49,.73,.96,0,1.66-.5,2.19-.96l.87-4.15c-.3-.06-.67-.08-1.05-.08-1.4,0-1.71,.75-1.91,1.64l-.59,2.81Z"/><path class="cls-1" d="M195.79,64.95c0-.21,.04-.44,.08-.65l.46-2.16c.5-2.39,1.72-3.77,4.97-3.77,2.5,0,3.58,1.43,3.52,3.1,0,.21-.04,.44-.08,.67l-.46,2.16c-.48,2.24-1.6,3.77-4.99,3.77-2.37,0-3.56-1.42-3.51-3.12Zm6.33-3.27c.02-.69-.38-1.05-1.26-1.05-1.01,0-1.62,.52-1.81,1.43l-.48,2.31c-.02,.13-.05,.27-.05,.38-.02,.67,.38,1.05,1.26,1.05,1.03,0,1.62-.52,1.81-1.43l.48-2.31c.02-.13,.05-.27,.05-.38Z"/><path class="cls-1" d="M221.28,61.55c.02-.11,.05-.21,.05-.29,0-.19-.09-.27-.35-.27-.5,0-1.68,.5-2.46,.9l-1.26,5.99h-2.68l1.33-6.33c.02-.11,.05-.21,.05-.29,0-.19-.09-.27-.35-.27-.5,0-1.7,.5-2.44,.88l-1.26,6h-2.7l1.9-9.08,2.38-.4-.05,1.03c1.48-.69,2.64-1.05,3.71-1.05,.92,0,1.38,.4,1.57,1.09,1.44-.82,2.73-1.09,3.8-1.09,1.24,0,1.68,.71,1.64,1.89-.01,.33-.04,.69-.13,1.07l-1.38,6.54h-2.7l1.33-6.33Z"/><path class="cls-1" d="M225.06,64.95c0-.21,.04-.44,.08-.65l.46-2.16c.5-2.39,1.72-3.77,4.97-3.77,2.5,0,3.58,1.43,3.52,3.1,0,.21-.04,.44-.08,.67l-.46,2.16c-.48,2.24-1.6,3.77-4.99,3.77-2.37,0-3.56-1.42-3.51-3.12Zm6.33-3.27c.02-.69-.38-1.05-1.26-1.05-1.01,0-1.62,.52-1.81,1.43l-.48,2.31c-.02,.13-.05,.27-.05,.38-.02,.67,.38,1.05,1.26,1.05,1.03,0,1.62-.52,1.81-1.43l.48-2.31c.02-.13,.05-.27,.05-.38Z"/><path class="cls-1" d="M241.25,60.82c-1.21,.65-1.66,.9-2.75,1.57l-1.17,5.49h-2.7l1.9-9.08,2.38-.4-.1,1.26c.92-.54,1.66-.92,2.47-1.26l-.05,2.43Z"/><path class="cls-1" d="M241.86,61.89c.46-2.14,1.46-3.52,4.41-3.52,1.76,0,3.07,.76,3.02,2.33-.06,1.82-1.03,2.66-3.35,3.35-1.14,.34-1.16,.34-1.97,.55l-.14,.65c-.07,.34-.04,.65,.46,.65,.98,0,2.41-.48,3.69-1.03l.45,1.91c-1.15,.71-2.95,1.28-4.59,1.28-1.93,0-2.72-.84-2.67-2.43,.01-.34,.06-.73,.15-1.13l.55-2.62Zm4.91-.9c.01-.33-.27-.54-.76-.54-.98,0-1.28,.55-1.44,1.32l-.14,.65c.46-.12,.67-.15,1.23-.33,.73-.21,1.09-.55,1.11-1.11Z"/><path class="cls-1" d="M250.38,64.71h2.7l-.66,3.17h-2.7l.66-3.17Z"/></g><path class="cls-2" d="M3.27,13.44c-4.56,6.55-3.99,15.06-.51,22.02,.08,.17,.17,.33,.25,.49,.05,.11,.1,.21,.16,.32,.03,.06,.07,.12,.1,.18,.06,.11,.12,.22,.18,.33,.11,.19,.22,.38,.34,.57,.06,.1,.12,.21,.19,.31,.12,.2,.26,.4,.38,.6,.06,.09,.11,.17,.17,.25,.18,.27,.36,.54,.56,.81,0,0,0,.02,.01,.02,.03,.04,.06,.09,.09,.13,.17,.23,.34,.45,.51,.68,.06,.08,.13,.16,.19,.24,.16,.19,.32,.39,.47,.58,.06,.07,.12,.14,.18,.21,.21,.25,.43,.5,.65,.75h.01s.01,.03,.03,.04c.22,.24,.44,.47,.66,.7,.07,.07,.14,.14,.22,.21,.17,.17,.34,.35,.53,.52,.07,.07,.15,.14,.22,.21,.24,.22,.48,.45,.73,.66h.01s.09,.08,.12,.12c.22,.19,.44,.38,.66,.56,.09,.07,.18,.15,.27,.22,.19,.15,.37,.29,.56,.43,.1,.07,.19,.15,.29,.22,.2,.15,.41,.3,.62,.44,.07,.05,.15,.11,.23,.16,.02,.02,.04,.03,.06,.05,.21,.13,.4,.26,.6,.4,.09,.06,.18,.11,.26,.17,.31,.2,.63,.39,.94,.58,.09,.05,.18,.1,.26,.15,.23,.13,.47,.27,.71,.39,.13,.07,.26,.14,.4,.2,.16,.09,.33,.18,.5,.27,.04,.02,.08,.03,.12,.05,.07,.03,.14,.07,.21,.1,.26,.13,.53,.25,.81,.37,.05,.02,.11,.05,.16,.07,.31,.13,.62,.26,.94,.39,.07,.03,.15,.06,.23,.09,.29,.11,.59,.22,.88,.33,.04,.02,.07,.03,.11,.04,.33,.11,.65,.22,.99,.32,.08,.02,.16,.05,.24,.07,.34,.1,.67,.22,1.02,.29,22.03,4.02,28.43-13.24,28.43-13.24-5.38,7-14.92,8.85-23.96,6.79-.34-.08-.67-.18-1.01-.28-.08-.02-.17-.05-.25-.08-.33-.1-.65-.21-.97-.31-.04-.01-.09-.03-.14-.05-.29-.1-.57-.21-.85-.32-.08-.03-.16-.06-.24-.09-.31-.12-.62-.26-.93-.39-.07-.02-.12-.05-.19-.08-.26-.12-.52-.24-.78-.36-.08-.03-.15-.07-.23-.11-.2-.1-.4-.2-.6-.31-.14-.07-.27-.14-.4-.21-.24-.13-.49-.27-.73-.4-.07-.05-.16-.09-.24-.14-.31-.19-.63-.38-.94-.58-.09-.06-.17-.11-.25-.17-.23-.14-.45-.29-.67-.44-.07-.05-.14-.1-.22-.15-.21-.15-.42-.3-.63-.46-.09-.07-.18-.14-.28-.21-.19-.15-.38-.29-.57-.45-.08-.07-.17-.14-.25-.2-.25-.2-.48-.4-.71-.6-.02-.02-.06-.04-.08-.07-.25-.22-.5-.45-.75-.68-.07-.07-.14-.14-.21-.2-.18-.18-.36-.35-.53-.52-.07-.07-.14-.14-.21-.21-.22-.23-.44-.46-.66-.7-.01,0-.02-.02-.03-.03-.23-.25-.45-.5-.67-.76-.06-.07-.12-.14-.18-.21-.16-.2-.32-.4-.49-.6-.05-.08-.11-.15-.17-.22-.19-.24-.37-.49-.56-.74-5.02-6.84-6.83-16.29-2.81-24.04"/><path class="cls-2" d="M17.42,7.92c-3.3,4.74-3.12,11.09-.55,16.1,.43,.84,.91,1.66,1.46,2.43,.49,.71,1.04,1.55,1.7,2.12,.23,.26,.48,.52,.74,.77,.06,.06,.13,.13,.19,.19,.25,.24,.5,.47,.75,.7,0,0,.02,.02,.03,.03h0c.29,.26,.58,.5,.88,.74,.07,.05,.13,.11,.21,.16,.3,.23,.6,.46,.91,.68,.01,0,.02,.01,.03,.02,.13,.1,.28,.19,.42,.28,.06,.04,.13,.09,.19,.13,.23,.15,.45,.29,.68,.42,.03,.02,.07,.04,.1,.05,.19,.12,.4,.23,.6,.34,.07,.04,.14,.08,.21,.12,.14,.07,.28,.15,.42,.22,.02,0,.04,.02,.07,.03,.29,.14,.59,.28,.88,.41,.07,.03,.13,.05,.2,.08,.24,.1,.48,.2,.72,.29,.11,.04,.21,.08,.31,.11,.22,.08,.44,.15,.66,.23,.11,.04,.21,.07,.3,.1,.31,.1,.63,.23,.96,.28,17.01,2.82,20.94-10.28,20.94-10.28-3.54,5.1-10.4,7.53-17.71,5.63-.33-.08-.65-.18-.96-.28-.1-.03-.19-.06-.29-.09-.23-.07-.46-.15-.68-.23-.1-.04-.21-.07-.31-.11-.24-.1-.49-.19-.72-.29-.07-.03-.14-.05-.19-.08-.3-.13-.6-.27-.89-.41-.15-.08-.29-.15-.44-.23-.09-.04-.18-.09-.25-.13-.2-.1-.38-.21-.57-.32-.04-.02-.09-.05-.13-.07-.23-.14-.46-.28-.68-.42-.07-.04-.14-.09-.21-.14-.15-.1-.29-.19-.45-.29-.31-.21-.61-.44-.91-.67-.07-.06-.14-.11-.21-.17-3.21-2.53-5.75-5.98-6.95-9.9-1.27-4.06-.99-8.63,1.2-12.33"/><path class="cls-2" d="M29.31,3.8c-1.95,2.86-2.14,6.41-.79,9.56,1.43,3.35,4.34,5.98,7.74,7.23,.14,.05,.28,.1,.42,.15,.06,.02,.12,.04,.19,.06,.2,.06,.4,.14,.6,.18,9.39,1.81,11.94-4.82,12.62-5.8-2.24,3.21-5.99,3.98-10.59,2.87-.36-.09-.76-.22-1.11-.35-.45-.16-.89-.34-1.33-.55-.81-.39-1.59-.87-2.32-1.42-4.12-3.12-6.67-9.08-3.99-13.94"/><path class="cls-1" d="M246.99,17.2l.37,1.56c.1,.45-.18,.81-.63,.81"/><path class="cls-1" d="M217.36,14.52c-.09,.43-.21,.98-.28,1.34l-3.25,15.22,3.42-16.03,.11-.52Z"/><polygon class="cls-1" points="119.96 24.71 118.17 31.06 119.96 24.71 119.96 24.71"/><path class="cls-1" d="M247.36,18.75l-.94-3.96c-.74-2.87-2.83-4.22-7.54-4.22h-19.79c-.46,0-.91,.21-1,.65l-7.51,35.61c-.1,.45-.13,.77-.08,.99,.05,.23,.93,.19,1.38,.19h6.86c.46,0,1.29,.03,1.53-.06,.25-.1,.37-.78,.46-1.23l2.42-12.49,2.96-13.85c.1-.44,.54-.81,1-.81h19.61c.45-.01,.74-.38,.63-.82"/><path class="cls-1" d="M275.26,4.31c-.46,0-8.7,0-8.7,0-.46,0-1.04,.49-1.29,.87l-15.26,22.45c-.26,.38-.56,.36-.66-.08l-1.13-4.92c-.1-.45-.55-.81-1.01-.81h-9.81c-.45,0-.72,.38-.6,.82l4.4,15.42c.13,.44,.14,1.16,.03,1.6l-2.05,7.81c-.11,.44,.17,.58,.63,.58h9.69c.46,0,.93-.13,1.04-.58l2.05-7.92c.11-.44,.43-1.04,.7-1.41l24.91-33.03c.28-.36,.24-.8-.21-.8h-2.71Z"/><path class="cls-1" d="M173.12,10.6h-8.85c-.45,0-.91,.16-1,.61l-2.93,13.69-2.92,13.11c-.09,.44-.54,.41-1,.41h-5.82c-5.76,0-5.09-3.64-3.91-9.09,.01-.05,3.69-18.13,3.69-18.13,.08-.45-.22-.61-.67-.61h-8.44c-.46,0-.91,.16-1,.61l-3.39,18.11c-1.69,9.79-1.74,18.41,9.62,18.7,.19,0,17.93,0,17.93,0,.46,0,.91-.15,1.01-.59l3.85-18.17,3.84-18.24s.14-.42-.02-.42Z"/><path class="cls-1" d="M84.94,10.57h-9.49c-.46,0-.91,.11-1.02,.56l-1.71,7.41c-.1,.44,.19,.79,.65,.79h9.09c.46,0,.91-.41,1.01-.86l1.65-7.47s.13-.43-.18-.43Z"/><path class="cls-1" d="M72.75,21.82c-.45,0-.91,.36-1.01,.81l-1.28,5.65-2.86,13.05s-1.52,6.94-1.66,7.37c0,0-1.28,5.01-4.34,4.81-1.42-.09-3.05-.42-3.05-.42h0c-.85-.26-.91,.63-1.02,1.07l-1.88,8.13c-.11,.45,.18,.85,.63,.85,0,0,4.09,.58,6.97,.58h.47c7.13,0,10.89-4.19,13.3-15.57l2.82-13.17,2.65-12.26c.1-.45-.17-.86-.63-.86"/><path class="cls-1" d="M195.52,10.51c-15.97,0-19.78,9.87-21.9,19.65-2.12,9.97-1.94,17.86,14.58,17.86h15.11c.45,0,.9-.42,.99-.86l1.62-6.33c.09-.45-.21-.58-.66-.58h-14.86c-5.38,0-7.31-1.66-7.12-5.38,0-.42,.48-1.5,.94-1.5h22.89c1,0,1.04-.59,1.04-.59,2.33-10.52,2.48-22.26-12.63-22.26m4.21,15.67c0,.49-1.56,.4-1.56,.4l-12.45-.09c-.43,0-.55-.6-.58-1.03,0-.01,.03-.52,.07-.64,.96-3.34,3.83-5.24,8.38-5.24,5.12,0,6.21,2.54,6.21,5.36"/><path class="cls-1" d="M126.52,37.73s4.47-10.86,5.49-17.14c1.39-8.4-2.81-20.59-19.07-20.59s-23.16,11.63-25.85,24.28c-2.67,12.74,.83,23.83,16.89,23.74h24.52c.45-.02,.92-.38,1.04-.82l2.07-7.87c.11-.44-.17-.8-.63-.81h-1.97l-1.97-.02c-.39,0-.61-.26-.56-.59,0-.06,.02-.12,.04-.18m-8.44-6.66l-1.84,6.29c-.13,.44-.65,.74-1.1,.74h-9.49c-7.2,0-8.95-5.57-7.2-13.87,1.76-8.49,5.24-13.74,12.32-14.28,9.69-.73,11.67,6.11,9.32,13.97l-2.01,7.15Z"/></svg>