<?xml version="1.0" encoding="utf-8"?>
<!-- Generator: Adobe Illustrator 26.3.1, SVG Export Plug-In . SVG Version: 6.00 Build 0)  -->
<svg version="1.1" id="Layer_1" xmlns="http://www.w3.org/2000/svg" xmlns:xlink="http://www.w3.org/1999/xlink" x="0px" y="0px"
	 viewBox="0 0 800 800" style="enable-background:new 0 0 800 800;" xml:space="preserve">
<path d="M800,400c0,220.9-179.1,400-400,400S0,620.9,0,400S179.1,0,400,0S800,179.1,800,400z M651.5,400.3
	c0-138.9-112.6-251.5-251.5-251.5c-138.9,0-251.5,112.6-251.5,251.5S261.1,651.8,400,651.8h0C538.9,651.8,651.5,539.2,651.5,400.3
	L651.5,400.3L651.5,400.3z M282.3,380.3h-92.9c7.4-77.4,56.6-144.6,128.3-174.9c3.3-1.4,6.7-2.7,10-3.9
	C298.3,256.5,282.8,317.9,282.3,380.3z M282.3,420.3c0.4,62.4,16,123.8,45.4,178.8c-3.4-1.2-6.7-2.5-10-4
	c-71.7-30.2-121-97.4-128.3-174.9L282.3,420.3z M322.4,380.3c0.9-23.5,3.6-47,8.1-70.1c4.5-24.4,12-48.1,22.2-70.8
	c14.5-30.8,33-50.6,47.2-50.6c14.2,0,32.8,19.9,47.2,50.6c10.2,22.6,17.7,46.4,22.2,70.8c4.5,23.1,7.3,46.6,8.1,70.1H322.4z
	 M477.6,420.3c-0.9,23.5-3.6,47-8.1,70.1c-4.6,24.4-12,48.1-22.2,70.8c-14.4,30.8-33,50.6-47.2,50.6c-14.2,0-32.8-19.8-47.3-50.7
	c-10.2-22.6-17.7-46.4-22.2-70.7c-4.5-23.1-7.3-46.6-8.1-70.1H477.6z M549.5,250.8c34.8,34.7,56.4,80.6,61,129.6h-92.9
	c-0.4-62.4-16-123.8-45.4-178.8c3.4,1.2,6.8,2.6,10.1,4C507.4,216,530.3,231.4,549.5,250.8L549.5,250.8z M517.6,420.3h92.9
	c-7.4,77.4-56.6,144.6-128.3,174.9c-3.3,1.4-6.7,2.8-10,4C501.7,544.1,517.3,482.7,517.6,420.3L517.6,420.3z"/>
</svg>
